{"title":"the gambler (2014 Screener)-crazytorrents","uid":11964119,"size":867020564,"categoryP":"video","categoryS":"movies","magnet":"?xt=urn:btih:fa7b91a8915251dd10e91c6046ef67149c0647b4&amp;dn=the+gambler+%282014+Screener%29-crazytorrents&amp;tr=udp%3A%2F%2Ftracker.openbittorrent.com%3A80&amp;tr=udp%3A%2F%2Fopen.demonii.com%3A1337&amp;tr=udp%3A%2F%2Ftracker.coppersurfer.tk%3A6969&amp;tr=udp%3A%2F%2Fexodus.desync.com%3A6969","seeders":0,"leechers":0,"uploader":null,"files":2,"time":1432639241,"description":"screenshots: &lt;a href=&quot;\nhttps://yuq.me/users/46/714/qKUyFeDVnvt.png&quot; rel=&quot;nofollow&quot; target=&quot;_NEW&quot;&gt;\nhttps://yuq.me/users/46/714/qKUyFeDVnvt.png&lt;/a&gt; &lt;a href=&quot;\nhttps://yuq.me/users/46/714/3drPDCayJbt.png&quot; rel=&quot;nofollow&quot; target=&quot;_NEW&quot;&gt;\nhttps://yuq.me/users/46/714/3drPDCayJbt.png&lt;/a&gt; &lt;a href=&quot;\nhttps://yuq.me/users/46/714/2MulfSx8Jqt.png&quot; rel=&quot;nofollow&quot; target=&quot;_NEW&quot;&gt;\nhttps://yuq.me/users/46/714/2MulfSx8Jqt.png&lt;/a&gt; &lt;a href=&quot;\nhttps://yuq.me/users/46/714/vpYsakB6QRt.png&quot; rel=&quot;nofollow&quot; target=&quot;_NEW&quot;&gt;\nhttps://yuq.me/users/46/714/vpYsakB6QRt.png&lt;/a&gt;\n\n\n\tVideo\nID : 1\nFormat : AVC\nFormat/Info : Advanced Video Codec\nFormat profile : &lt;a class=&quot;__cf_email__&quot; href=&quot;/cdn-cgi/l/email-protection&quot; data-cfemail=&quot;db93b2bcb39b97e9f5e9&quot;&gt;[email&amp;#160;protected]&lt;/a&gt;&lt;script data-cfhash='f9e31' type=&quot;text/javascript&quot;&gt;\n/* &lt;![CDATA[ */!function(){try{var t=&quot;currentScript&quot;in document?document.currentScript:function(){for(var t=document.getElementsByTagName(&quot;script&quot;),e=t.length;e--;)if(t[e].getAttribute(&quot;data-cfhash&quot;))return t[e]}();if(t&amp;&amp;t.previousSibling){var e,r,n,i,c=t.previousSibling,a=c.getAttribute(&quot;data-cfemail&quot;);if(a){for(e=&quot;&quot;,r=parseInt(a.substr(0,2),16),n=2;a.length-n;n+=2)i=parseInt(a.substr(n,2),16)^r,e+=String.fromCharCode(i);e=document.createTextNode(e),c.parentNode.replaceChild(e,c)}t.parentNode.removeChild(t);}}catch(u){}}()/* ]]&gt; */&lt;/script&gt;\nFormat settings, CABAC : Yes\nFormat settings, ReFrames : 4 frames\nCodec ID : avc1\nCodec ID/Info : Advanced Video Coding\nDuration : 1h 50mn\nBit rate : 900 Kbps\nWidth : 704 pixels\nHeight : 304 pixels\nDisplay aspect ratio : 2.35:1\nFrame rate mode : Variable\nFrame rate : 23.932 fps\nMinimum frame rate : 11.987 fps\nMaximum frame rate : 23.981 fps\nColor space : YUV[list=1] \n[*]Chroma subsampling : 4:2:0\nBit depth : 8 bits\nScan type : Progressive\nBits/(Pixel*Frame) : 0.176\nStream size : 721 MiB (90%)\nColor primaries : BT.601 NTSC\nTransfer characteristics : BT.709\nMatrix coefficients : BT.601\nColor range : Limited\n [*]Audio\nID : 2\nFormat : AAC\nFormat/Info : Advanced Audio Codec\nFormat profile : LC\nCodec ID : 40\nDuration : 1h 50mn\nBit rate mode : Variable\nBit rate : 96.0 Kbps\nChannel(s) : 2 channels\nChannel positions : Front: L R\nSampling rate : 48.0 KHz\nCompression mode : Lossy\nStream size : 76.2 MiB (9%)\nTitle : Stereo / Stereo\nuploaded by : crazytorrents","torrent":{"xt":"urn:btih:fa7b91a8915251dd10e91c6046ef67149c0647b4","amp;dn":"the+gambler+%282014+Screener%29-crazytorrents","amp;tr":["udp%3A%2F%2Ftracker.openbittorrent.com%3A80","udp%3A%2F%2Fopen.demonii.com%3A1337","udp%3A%2F%2Ftracker.coppersurfer.tk%3A6969","udp%3A%2F%2Fexodus.desync.com%3A6969"],"infoHash":"fa7b91a8915251dd10e91c6046ef67149c0647b4","infoHashBuffer":{"type":"Buffer","data":[250,123,145,168,145,82,81,221,16,233,28,96,70,239,103,20,156,6,71,180]},"announce":[],"urlList":[]}}